<svg aria-hidden="true" style="position: absolute; width: 0; height: 0; overflow: hidden;" version="1.1" xmlns="http://www.w3.org/2000/svg" xmlns:xlink="http://www.w3.org/1999/xlink">
<defs>
<symbol id="icon-stats-dots" viewBox="0 0 32 32">
<path d="M4 28h28v4h-32v-32h4zM9 26c-1.657 0-3-1.343-3-3s1.343-3 3-3c0.088 0 0.176 0.005 0.262 0.012l3.225-5.375c-0.307-0.471-0.487-1.033-0.487-1.638 0-1.657 1.343-3 3-3s3 1.343 3 3c0 0.604-0.179 1.167-0.487 1.638l3.225 5.375c0.086-0.007 0.174-0.012 0.262-0.012 0.067 0 0.133 0.003 0.198 0.007l5.324-9.316c-0.329-0.482-0.522-1.064-0.522-1.691 0-1.657 1.343-3 3-3s3 1.343 3 3c0 1.657-1.343 3-3 3-0.067 0-0.133-0.003-0.198-0.007l-5.324 9.316c0.329 0.481 0.522 1.064 0.522 1.691 0 1.657-1.343 3-3 3s-3-1.343-3-3c0-0.604 0.179-1.167 0.487-1.638l-3.225-5.375c-0.086 0.007-0.174 0.012-0.262 0.012s-0.176-0.005-0.262-0.012l-3.225 5.375c0.307 0.471 0.487 1.033 0.487 1.637 0 1.657-1.343 3-3 3z"></path>
</symbol>
<symbol id="icon-clipboard" viewBox="0 0 32 32">
<path d="M29 4h-9c0-2.209-1.791-4-4-4s-4 1.791-4 4h-9c-0.552 0-1 0.448-1 1v26c0 0.552 0.448 1 1 1h26c0.552 0 1-0.448 1-1v-26c0-0.552-0.448-1-1-1zM16 2c1.105 0 2 0.895 2 2s-0.895 2-2 2c-1.105 0-2-0.895-2-2s0.895-2 2-2zM28 30h-24v-24h4v3c0 0.552 0.448 1 1 1h14c0.552 0 1-0.448 1-1v-3h4v24z"></path>
<path d="M14 26.828l-6.414-7.414 1.828-1.828 4.586 3.586 8.586-7.586 1.829 1.828z"></path>
</symbol>
<symbol id="icon-books" viewBox="0 0 36 32">
<path d="M7 4h-6c-0.55 0-1 0.45-1 1v22c0 0.55 0.45 1 1 1h6c0.55 0 1-0.45 1-1v-22c0-0.55-0.45-1-1-1zM6 10h-4v-2h4v2z"></path>
<path d="M17 4h-6c-0.55 0-1 0.45-1 1v22c0 0.55 0.45 1 1 1h6c0.55 0 1-0.45 1-1v-22c0-0.55-0.45-1-1-1zM16 10h-4v-2h4v2z"></path>
<path d="M23.909 5.546l-5.358 2.7c-0.491 0.247-0.691 0.852-0.443 1.343l8.999 17.861c0.247 0.491 0.852 0.691 1.343 0.443l5.358-2.7c0.491-0.247 0.691-0.852 0.443-1.343l-8.999-17.861c-0.247-0.491-0.852-0.691-1.343-0.443z"></path>
</symbol>
<symbol id="icon-user-check" viewBox="0 0 32 32">
<path d="M30 19l-9 9-3-3-2 2 5 5 11-11z"></path>
<path d="M14 24h10v-3.598c-2.101-1.225-4.885-2.066-8-2.321v-1.649c2.203-1.242 4-4.337 4-7.432 0-4.971 0-9-6-9s-6 4.029-6 9c0 3.096 1.797 6.191 4 7.432v1.649c-6.784 0.555-12 3.888-12 7.918h14v-2z"></path>
</symbol>
<symbol id="icon-user" viewBox="0 0 32 32">
<path d="M18 22.082v-1.649c2.203-1.241 4-4.337 4-7.432 0-4.971 0-9-6-9s-6 4.029-6 9c0 3.096 1.797 6.191 4 7.432v1.649c-6.784 0.555-12 3.888-12 7.918h28c0-4.030-5.216-7.364-12-7.918z"></path>
</symbol>
<symbol id="icon-truck" viewBox="0 0 32 32">
<path d="M32 18l-4-8h-6v-4c0-1.1-0.9-2-2-2h-18c-1.1 0-2 0.9-2 2v16l2 2h2.536c-0.341 0.588-0.536 1.271-0.536 2 0 2.209 1.791 4 4 4s4-1.791 4-4c0-0.729-0.196-1.412-0.536-2h11.073c-0.341 0.588-0.537 1.271-0.537 2 0 2.209 1.791 4 4 4s4-1.791 4-4c0-0.729-0.196-1.412-0.537-2h2.537v-6zM22 18v-6h4.146l3 6h-7.146z"></path>
</symbol>
<symbol id="icon-price-tags" viewBox="0 0 40 32">
<path d="M38.5 0h-12c-0.825 0-1.977 0.477-2.561 1.061l-14.879 14.879c-0.583 0.583-0.583 1.538 0 2.121l12.879 12.879c0.583 0.583 1.538 0.583 2.121 0l14.879-14.879c0.583-0.583 1.061-1.736 1.061-2.561v-12c0-0.825-0.675-1.5-1.5-1.5zM31 12c-1.657 0-3-1.343-3-3s1.343-3 3-3 3 1.343 3 3-1.343 3-3 3z"></path>
<path d="M4 17l17-17h-2.5c-0.825 0-1.977 0.477-2.561 1.061l-14.879 14.879c-0.583 0.583-0.583 1.538 0 2.121l12.879 12.879c0.583 0.583 1.538 0.583 2.121 0l0.939-0.939-13-13z"></path>
</symbol>
<symbol id="icon-spoon-knife" viewBox="0 0 32 32">
<path d="M7 0c-3.314 0-6 3.134-6 7 0 3.31 1.969 6.083 4.616 6.812l-0.993 16.191c-0.067 1.098 0.778 1.996 1.878 1.996h1c1.1 0 1.945-0.898 1.878-1.996l-0.993-16.191c2.646-0.729 4.616-3.502 4.616-6.812 0-3.866-2.686-7-6-7zM27.167 0l-1.667 10h-1.25l-0.833-10h-0.833l-0.833 10h-1.25l-1.667-10h-0.833v13c0 0.552 0.448 1 1 1h2.604l-0.982 16.004c-0.067 1.098 0.778 1.996 1.878 1.996h1c1.1 0 1.945-0.898 1.878-1.996l-0.982-16.004h2.604c0.552 0 1-0.448 1-1v-13h-0.833z"></path>
</symbol>
<symbol id="icon-tv" viewBox="0 0 32 32">
<path d="M30.662 9.003c-2.775-0.399-5.731-0.688-8.815-0.851l5.153-5.153-2-2-7.017 7.017c-0.656-0.011-1.317-0.017-1.983-0.017v0l-8-8-2 2 6.069 6.069c-3.779 0.133-7.386 0.454-10.731 0.935-0.86 3.366-1.338 7.086-1.338 10.997s0.477 7.63 1.338 10.997c4.489 0.645 9.448 1.003 14.662 1.003s10.173-0.358 14.662-1.003c0.86-3.366 1.338-7.086 1.338-10.997s-0.477-7.63-1.338-10.997zM26.997 27.331c-3.367 0.43-7.086 0.669-10.997 0.669s-7.63-0.239-10.997-0.669c-0.645-2.244-1.003-4.724-1.003-7.331s0.358-5.087 1.003-7.331c3.366-0.43 7.086-0.669 10.997-0.669s7.63 0.239 10.996 0.669c0.645 2.244 1.004 4.724 1.004 7.331s-0.358 5.087-1.003 7.331z"></path>
</symbol>
<symbol id="icon-envelop" viewBox="0 0 32 32">
<path d="M29 4h-26c-1.65 0-3 1.35-3 3v20c0 1.65 1.35 3 3 3h26c1.65 0 3-1.35 3-3v-20c0-1.65-1.35-3-3-3zM12.461 17.199l-8.461 6.59v-15.676l8.461 9.086zM5.512 8h20.976l-10.488 7.875-10.488-7.875zM12.79 17.553l3.21 3.447 3.21-3.447 6.58 8.447h-19.579l6.58-8.447zM19.539 17.199l8.461-9.086v15.676l-8.461-6.59z"></path>
</symbol>
<symbol id="icon-file-pdf" viewBox="0 0 32 32">
<path d="M26.313 18.421c-0.427-0.42-1.372-0.643-2.812-0.662-0.974-0.011-2.147 0.075-3.38 0.248-0.552-0.319-1.122-0.665-1.568-1.083-1.202-1.122-2.205-2.68-2.831-4.394 0.041-0.16 0.075-0.301 0.108-0.444 0 0 0.677-3.846 0.498-5.146-0.025-0.178-0.040-0.23-0.088-0.369l-0.059-0.151c-0.184-0.425-0.545-0.875-1.111-0.85l-0.341-0.011c-0.631 0-1.146 0.323-1.281 0.805-0.411 1.514 0.013 3.778 0.781 6.711l-0.197 0.478c-0.55 1.34-1.238 2.689-1.846 3.88l-0.079 0.155c-0.639 1.251-1.22 2.313-1.745 3.213l-0.543 0.287c-0.040 0.021-0.97 0.513-1.188 0.645-1.852 1.106-3.079 2.361-3.282 3.357-0.065 0.318-0.017 0.725 0.313 0.913l0.525 0.264c0.228 0.114 0.468 0.172 0.714 0.172 1.319 0 2.85-1.643 4.959-5.324 2.435-0.793 5.208-1.452 7.638-1.815 1.852 1.043 4.129 1.767 5.567 1.767 0.255 0 0.475-0.024 0.654-0.072 0.276-0.073 0.508-0.23 0.65-0.444 0.279-0.42 0.335-0.998 0.26-1.59-0.023-0.176-0.163-0.393-0.315-0.541zM6.614 25.439c0.241-0.658 1.192-1.958 2.6-3.111 0.088-0.072 0.306-0.276 0.506-0.466-1.472 2.348-2.458 3.283-3.106 3.577zM14.951 6.24c0.424 0 0.665 1.069 0.685 2.070s-0.214 1.705-0.505 2.225c-0.241-0.77-0.357-1.984-0.357-2.778 0 0-0.018-1.517 0.177-1.517v0zM12.464 19.922c0.295-0.529 0.603-1.086 0.917-1.677 0.765-1.447 1.249-2.58 1.609-3.511 0.716 1.303 1.608 2.41 2.656 3.297 0.131 0.111 0.269 0.222 0.415 0.333-2.132 0.422-3.974 0.935-5.596 1.558v0zM25.903 19.802c-0.13 0.081-0.502 0.128-0.741 0.128-0.772 0-1.727-0.353-3.066-0.927 0.515-0.038 0.986-0.057 1.409-0.057 0.774 0 1.004-0.003 1.761 0.19s0.767 0.585 0.637 0.667v0z"></path>
<path d="M28.681 7.159c-0.694-0.947-1.662-2.053-2.724-3.116s-2.169-2.030-3.116-2.724c-1.612-1.182-2.393-1.319-2.841-1.319h-15.5c-1.378 0-2.5 1.121-2.5 2.5v27c0 1.378 1.121 2.5 2.5 2.5h23c1.378 0 2.5-1.122 2.5-2.5v-19.5c0-0.448-0.137-1.23-1.319-2.841v0zM24.543 5.457c0.959 0.959 1.712 1.825 2.268 2.543h-4.811v-4.811c0.718 0.556 1.584 1.309 2.543 2.268v0zM28 29.5c0 0.271-0.229 0.5-0.5 0.5h-23c-0.271 0-0.5-0.229-0.5-0.5v-27c0-0.271 0.229-0.5 0.5-0.5 0 0 15.499-0 15.5 0v7c0 0.552 0.448 1 1 1h7v19.5z"></path>
</symbol>
<symbol id="icon-folder-download" viewBox="0 0 32 32">
<path d="M18 8l-4-4h-14v26h32v-22h-14zM16 27l-7-7h5v-8h4v8h5l-7 7z"></path>
</symbol>
<symbol id="icon-arrow-left2" viewBox="0 0 32 32">
<path d="M12.586 27.414l-10-10c-0.781-0.781-0.781-2.047 0-2.828l10-10c0.781-0.781 2.047-0.781 2.828 0s0.781 2.047 0 2.828l-6.586 6.586h19.172c1.105 0 2 0.895 2 2s-0.895 2-2 2h-19.172l6.586 6.586c0.39 0.39 0.586 0.902 0.586 1.414s-0.195 1.024-0.586 1.414c-0.781 0.781-2.047 0.781-2.828 0z"></path>
</symbol>
</defs>
</svg>
